PathFileType	4	(X/Y/Z)	/Users/itak/Documents/Research/Walk-IL/dataset/trc/00358_00011.trc
DataRate	CameraRate	NumFrames	NumMarkers	Units	OrigDataRate	OrigDataStartFrame	OrigNumFrames
100.000000	100.000000	4	53	mm	100.000000	73	586
Frame#	Time	RPSI			LPSI			L3			STRN			T10			C7			CLAV			RBAK			LBAK			LSHO			LUPA			LAEL			LAOL			LWTS			LWPS			LFRA			LIFD			LHPS			LHTS			RSHO			RUPA			RAEL			RAOL			RWTS			RWPS			RFRA			RIFD			RHTS			RHPS			RBHD			LFHD			RFHD			LBHD			LHIP			RHIP			RASI			LASI			LKNE			LTHI			LANK			LTIP			LTOE			LMT1			LMT5			LHEE			RKNE			RTHI			RANK			RTIP			RTOE			RMT1			RMT5			RHEE			
		X1	Y1	Z1	X2	Y2	Z2	X3	Y3	Z3	X4	Y4	Z4	X5	Y5	Z5	X6	Y6	Z6	X7	Y7	Z7	X8	Y8	Z8	X9	Y9	Z9	X10	Y10	Z10	X11	Y11	Z11	X12	Y12	Z12	X13	Y13	Z13	X14	Y14	Z14	X15	Y15	Z15	X16	Y16	Z16	X17	Y17	Z17	X18	Y18	Z18	X19	Y19	Z19	X20	Y20	Z20	X21	Y21	Z21	X22	Y22	Z22	X23	Y23	Z23	X24	Y24	Z24	X25	Y25	Z25	X26	Y26	Z26	X27	Y27	Z27	X28	Y28	Z28	X29	Y29	Z29	X30	Y30	Z30	X31	Y31	Z31	X32	Y32	Z32	X33	Y33	Z33	X34	Y34	Z34	X35	Y35	Z35	X36	Y36	Z36	X37	Y37	Z37	X38	Y38	Z38	X39	Y39	Z39	X40	Y40	Z40	X41	Y41	Z41	X42	Y42	Z42	X43	Y43	Z43	X44	Y44	Z44	X45	Y45	Z45	X46	Y46	Z46	X47	Y47	Z47	X48	Y48	Z48	X49	Y49	Z49	X50	Y50	Z50	X51	Y51	Z51	X52	Y52	Z52	X53	Y53	Z53	

74	0.73	-1344.4423828125	984.0282592773438	802.6378784179688	-1341.39111328125	982.5364990234375	674.1927490234375	-1342.015014648438	1035.028076171875	740.3551635742188	-1119.89697265625	1221.951904296875	733.533447265625	-1354.263916015625	1153.620971679688	725.7859497070312	-1318.843994140625	1402.678344726562	705.8126831054688	-1161.644775390625	1348.494018554688	722.9534912109375	-1366.955322265625	1264.825073242188	774.5687255859375	-1322.442016601562	1362.588989257812	604.6390991210938	-1233.335083007812	1379.143188476562	553.90380859375	-1244.665161132812	1255.60595703125	489.3534851074219	-1221.1787109375	1050.8876953125	488.1839904785156	-1287.903198242188	1039.10986328125	539.2830810546875	-1125.707275390625	812.2899169921875	552.306640625	-1160.219116210938	798.0892333984375	493.7425231933594	-1203.538452148438	947.0828247070312	487.6642150878906	-1121.468627929688	649.6596069335938	557.5518188476562	-1163.110961914062	729.53271484375	501.7181701660156	-1111.915405273438	733.3488159179688	540.3701171875	-1271.587768554688	1394.927734375	873.6594848632812	-1286.248779296875	1331.218994140625	937.1512451171875	-1282.372924804688	1063.630126953125	979.060302734375	-1317.204467773438	1055.868896484375	891.5892944335938	-1167.722045898438	837.0147705078125	936.0213012695312	-1205.278198242188	821.1458740234375	1001.643249511719	-1257.444091796875	996.5753173828125	989.4432983398438	-1153.899658203125	664.7584228515625	945.95068359375	-1137.941772460938	737.38330078125	951.3967895507812	-1187.9609375	737.872802734375	999.7129516601562	-1290.500122070312	1609.92138671875	787.1984252929688	-1112.483154296875	1629.73583984375	682.0634765625	-1129.623168945312	1631.0966796875	781.3072509765625	-1292.642944335938	1602.60693359375	643.040283203125	-1252.470336914062	924.4623413085938	572.1066284179688	-1276.368041992188	934.3758544921875	920.6105346679688	-1162.278564453125	952.9027099609375	873.4217529296875	-1132.973022460938	945.535888671875	635.32275390625	-1239.694946289062	469.509521484375	567.7780151367188	-1224.317993164062	605.97900390625	562.47802734375	-1316.115234375	50.78465270996094	553.969482421875	-1280.976440429688	254.6460266113281	547.8460083007812	-1115.600830078125	45.58322143554688	628.9586181640625	-1187.297241210938	36.07987213134766	664.2130126953125	-1188.63671875	45.88988876342773	550.684326171875	-1356.031372070312	46.76457214355469	618.4588623046875	-1268.974975585938	468.2658081054688	922.3310546875	-1219.5498046875	725.5859985351562	928.4448852539062	-1336.059814453125	52.62106704711914	932.1647338867188	-1268.255737304688	352.0377197265625	924.482177734375	-1140.69580078125	46.19675445556641	888.482421875	-1194.760131835938	43.09868621826172	844.5890502929688	-1236.357666015625	38.56379318237305	955.4524536132812	-1384.986450195312	56.13281631469727	882.3297729492188	
75	0.74	-1344.247436523438	984.0296630859375	802.595947265625	-1341.193603515625	982.5906982421875	674.2000732421875	-1341.75830078125	1035.011108398438	740.2623291015625	-1119.765991210938	1221.843994140625	733.5674438476562	-1353.999755859375	1153.6015625	725.71337890625	-1318.60791015625	1402.701416015625	705.8772583007812	-1161.500610351562	1348.45849609375	722.9991455078125	-1366.659545898438	1264.730224609375	774.477783203125	-1322.189575195312	1362.567749023438	604.6199951171875	-1233.157592773438	1379.180786132812	553.9124755859375	-1244.442504882812	1255.647338867188	489.3179931640625	-1220.97998046875	1050.978393554688	488.0216674804688	-1287.671630859375	1039.049560546875	539.090576171875	-1125.442016601562	812.3444213867188	551.8834838867188	-1159.97216796875	798.1221313476562	493.3904724121094	-1203.4658203125	947.1080322265625	487.4806213378906	-1121.185913085938	649.7303466796875	557.0194091796875	-1162.95068359375	729.6349487304688	501.2676391601562	-1111.665283203125	733.3307495117188	539.8342895507812	-1271.345336914062	1394.918701171875	873.6506958007812	-1285.985717773438	1331.162963867188	937.1450805664062	-1281.958740234375	1063.576782226562	979.002197265625	-1316.802856445312	1055.830688476562	891.5132446289062	-1167.247314453125	837.030517578125	935.9284057617188	-1204.65771484375	821.12939453125	1001.557495117188	-1257.037353515625	996.5025634765625	989.3600463867188	-1153.25244140625	664.7464599609375	945.7367553710938	-1136.994995117188	737.8759155273438	951.4066162109375	-1187.188354492188	737.8394165039062	999.4044189453125	-1290.205078125	1609.933715820312	787.1934204101562	-1112.213012695312	1629.72265625	682.09033203125	-1129.295288085938	1631.083129882812	781.1780395507812	-1292.35986328125	1602.601684570312	643.1362915039062	-1252.304565429688	924.4714965820312	572.1275634765625	-1276.104248046875	934.34814453125	920.5537719726562	-1162.07080078125	952.9183959960938	873.4539794921875	-1132.677612304688	945.542724609375	635.2224731445312	-1239.549072265625	469.4825439453125	567.770751953125	-1224.017700195312	605.9893798828125	562.4309692382812	-1316.111206054688	50.78366088867188	553.9681396484375	-1280.848876953125	254.6829528808594	547.858154296875	-1115.598754882812	45.57869720458984	628.9615478515625	-1187.295532226562	36.07643508911133	664.2168579101562	-1188.636352539062	45.88850402832031	550.684814453125	-1356.032958984375	46.77664947509766	618.459228515625	-1268.880615234375	468.205078125	922.2792358398438	-1219.341796875	725.531494140625	928.2754516601562	-1336.0498046875	52.63977813720703	932.1532592773438	-1268.1552734375	352.0407409667969	924.4060668945312	-1140.684448242188	46.17129135131836	888.4957885742188	-1194.731201171875	43.11297607421875	844.6021728515625	-1236.355346679688	38.56255722045898	955.4497680664062	-1384.974975585938	56.14908218383789	882.2946166992188	
76	0.75	-1344.025634765625	984.0162353515625	802.5367431640625	-1340.976196289062	982.6314086914062	674.1968383789062	-1341.5107421875	1035.003295898438	740.201171875	-1119.626220703125	1221.731079101562	733.5724487304688	-1353.737670898438	1153.570434570312	725.6337890625	-1318.365478515625	1402.737182617188	705.945556640625	-1161.348510742188	1348.41552734375	723.0513305664062	-1366.353637695312	1264.642700195312	774.376953125	-1321.9296875	1362.565307617188	604.59716796875	-1232.976806640625	1379.221313476562	553.9150390625	-1244.232421875	1255.698364257812	489.29052734375	-1220.781982421875	1051.079345703125	487.8678894042969	-1287.435180664062	1039.000732421875	538.9130249023438	-1125.165771484375	812.404296875	551.4531860351562	-1159.721557617188	798.17529296875	493.0294189453125	-1203.370483398438	947.1402587890625	487.2928466796875	-1120.898071289062	649.8186645507812	556.4854736328125	-1162.79150390625	729.6952514648438	500.8841552734375	-1111.418579101562	733.3176879882812	539.3064575195312	-1271.091918945312	1394.916748046875	873.6388549804688	-1285.708129882812	1331.096069335938	937.1428833007812	-1281.53955078125	1063.5029296875	978.9129028320312	-1316.386596679688	1055.802978515625	891.441162109375	-1166.81787109375	837.0049438476562	935.8194580078125	-1204.017822265625	821.094970703125	1001.415283203125	-1256.616088867188	996.4053955078125	989.27734375	-1152.568115234375	664.7357788085938	945.5045166015625	-1136.0537109375	738.2953491210938	951.3872680664062	-1186.4384765625	737.8294677734375	999.1068115234375	-1289.899047851562	1609.931274414062	787.1873168945312	-1111.932983398438	1629.7138671875	682.1031494140625	-1128.960205078125	1631.070068359375	781.0510864257812	-1292.078125	1602.611938476562	643.2093505859375	-1252.13818359375	924.4763793945312	572.1870727539062	-1275.845703125	934.3338012695312	920.4908447265625	-1161.868408203125	952.947509765625	873.4800415039062	-1132.4150390625	945.5224609375	635.1420288085938	-1239.373413085938	469.4583129882812	567.7522583007812	-1223.713623046875	605.983154296875	562.3956298828125	-1316.106201171875	50.78305435180664	553.9672241210938	-1280.696655273438	254.7335510253906	547.8704833984375	-1115.596923828125	45.5747184753418	628.9642333984375	-1187.29296875	36.07348251342773	664.2203979492188	-1188.637084960938	45.88776779174805	550.684814453125	-1356.033813476562	46.78939819335938	618.4622802734375	-1268.765625	468.138916015625	922.2244262695312	-1219.139038085938	725.4904174804688	928.099853515625	-1336.0380859375	52.66427230834961	932.1376953125	-1268.047241210938	352.0422668457031	924.3263549804688	-1140.669921875	46.14764022827148	888.5101318359375	-1194.69189453125	43.12206268310547	844.6183471679688	-1236.35205078125	38.56150436401367	955.4467163085938	-1384.965454101562	56.17295837402344	882.2510375976562	
77	0.76	-1343.775512695312	983.9878540039062	802.4581298828125	-1340.734375	982.6552124023438	674.1727905273438	-1341.271850585938	1035.00341796875	740.1700439453125	-1119.47021484375	1221.6142578125	733.5437622070312	-1353.483154296875	1153.532592773438	725.5543212890625	-1318.115966796875	1402.780639648438	706.0137939453125	-1161.1865234375	1348.364135742188	723.1104736328125	-1366.041625976562	1264.571044921875	774.2769775390625	-1321.664916992188	1362.5810546875	604.5800170898438	-1232.78759765625	1379.263549804688	553.9116821289062	-1244.03173828125	1255.755493164062	489.2713012695312	-1220.58544921875	1051.186767578125	487.7215576171875	-1287.196044921875	1038.97216796875	538.7554321289062	-1124.905395507812	812.4525756835938	551.0322265625	-1159.474731445312	798.2454223632812	492.6676635742188	-1203.237426757812	947.1838989257812	487.0895385742188	-1120.607421875	649.9242553710938	555.9423828125	-1162.62744140625	729.7213134765625	500.5592651367188	-1111.183837890625	733.313720703125	538.7947387695312	-1270.823364257812	1394.91748046875	873.6231079101562	-1285.415161132812	1331.019775390625	937.1448364257812	-1281.112548828125	1063.410400390625	978.7973022460938	-1315.957153320312	1055.779663085938	891.3790893554688	-1166.39111328125	836.9486083984375	935.6826782226562	-1203.359252929688	821.0441284179688	1001.217834472656	-1256.171142578125	996.2844848632812	989.19091796875	-1151.825073242188	664.7484130859375	945.2503051757812	-1135.135986328125	738.5958862304688	951.29345703125	-1185.716430664062	737.8405151367188	998.8364868164062	-1289.58056640625	1609.91357421875	787.1878662109375	-1111.63916015625	1629.7080078125	682.099365234375	-1128.618530273438	1631.055541992188	780.9376831054688	-1291.80078125	1602.636840820312	643.2566528320312	-1251.961181640625	924.4783325195312	572.27392578125	-1275.589965820312	934.3292236328125	920.4164428710938	-1161.668823242188	952.9864501953125	873.49462890625	-1132.187866210938	945.4771728515625	635.081298828125	-1239.168334960938	469.4369201660156	567.7201538085938	-1223.413208007812	605.9548950195312	562.3734741210938	-1316.1005859375	50.78257369995117	553.9671630859375	-1280.515625	254.7931671142578	547.8757934570312	-1115.595825195312	45.57170104980469	628.9663696289062	-1187.290161132812	36.07151794433594	664.2236938476562	-1188.638916015625	45.88785552978516	550.6845092773438	-1356.033081054688	46.80226135253906	618.4669799804688	-1268.630126953125	468.0711059570312	922.1690063476562	-1218.939086914062	725.4590454101562	927.9127807617188	-1336.02490234375	52.69439697265625	932.1184692382812	-1267.934204101562	352.044189453125	924.2463989257812	-1140.65185546875	46.12551879882812	888.5254516601562	-1194.645385742188	43.12918472290039	844.6376342773438	-1236.347778320312	38.56085205078125	955.4435424804688	-1384.955444335938	56.20103073120117	882.2044067382812	
